# xmcd
#
# Track frame offsets: 
#        150
#        14987
#        44324
#        74854
#        107416
#        126800
#        160723
#        178558
#        219341
#        252299
#        289859
#
# Disc length: 4403 seconds
#
# Revision: 1
# Processed by: cddbd v1.5.2PL0 Copyright (c) Steve Scherf et al.
# Submitted via: ExactAudioCopy v0.99pb5
#
DISCID=a211310b
DTITLE=Fabrizio Bosso Quintet - Rome After Midnight
DYEAR=2004
DGENRE=Jazz
TTITLE0=Eye Of The Hurricane
TTITLE1=Ceora
TTITLE2=Honeysuckle Rose
TTITLE3=Road Song
TTITLE4=Johnny Comes Lately
TTITLE5=You Don't Know What Love Is
TTITLE6=Birdlike
TTITLE7=Have You Met Miss Jones
TTITLE8=Crisis
TTITLE9=There Is No Greater Love
TTITLE10=I'll Remember April
EXTD=YEAR: 2004
EXTT0=
EXTT1=
EXTT2=
EXTT3=
EXTT4=
EXTT5=
EXTT6=
EXTT7=
EXTT8=
EXTT9=
EXTT10=
PLAYORDER=
